<svg id="N" xmlns="http://www.w3.org/2000/svg" xmlns:xlink="http://www.w3.org/1999/xlink" width="1290.19" height="561" viewBox="0 0 1290.19 561"><defs><style>.cls-1{fill:#666;}.cls-2{fill:#b3b3b3;}.cls-3{fill:#fff;}</style><symbol id="Screen_Logo" data-name="Screen Logo" viewBox="0 0 1290.18 561"><path class="cls-1" d="M1074.17,0H140.06A108.47,108.47,0,0,0,32.35,95.87L0.73,365.9A108.49,108.49,0,0,0,108.45,487H806.91a8.65,8.65,0,0,1,8.67,8.18c0.75,15.82-10.63,40-24.38,65.82h64.12a178.06,178.06,0,0,0,92.57-25.91A164.77,164.77,0,0,0,998.43,487h44.13a108.45,108.45,0,0,0,107.72-95.84L1156.5,338h11.7l14.06-16.28,6-6.92L1226.16,271c21.72-24.59,45.17-53.84,49.14-89.94l9.14-82.93L1290.19,46H1162.68a109,109,0,0,0-88.51-46h0Z"/><path class="cls-2" d="M1133.59,93c-6.92-26-30.65-46-59.41-46H140.06a61.47,61.47,0,0,0-61,54.33l-31.61,270a61.49,61.49,0,0,0,61,68.64H832.38c43.65,2,41.66,58.41,23,73.7,47.41,0,95.9-25.87,115.11-73.7h72.13a61.46,61.46,0,0,0,61-54.31L1114.68,291h32l6-6.93,38.12-44c17.78-20.11,35.32-41.63,37.79-64.12L1237.72,93H1133.59Z"/><path class="cls-3" d="M1113.06,175.4c-1.55,14.16-15.09,30.76-28.47,45.89l-33,38.08h-27.34L1069,194h-26.36l7.83-71.28h68.35Zm79.57,0c-1.55,14.16-15.09,30.76-28.47,45.89l-33,38.08h-27.34L1148.62,194h-26.36l7.83-71.28h68.35Z"/><path class="cls-3" d="M315.19,142.93L280.7,177.43q-24.29-21.8-45-21.8-14.07,0-23.32,7.86t-9.24,19.45a25.86,25.86,0,0,0,7.73,19q7.72,8,32.29,21.52,35,19.6,46.91,35.87,12.69,16,12.69,41.67,0,37-25.66,59.33Q250.89,382.45,209,382.45q-57.12,0-94.65-51.6l40-27.87q24.56,29.53,52.43,29.53,15.73,0,25.25-8.28t9.52-21.52q0-11.59-8-18.76A113.71,113.71,0,0,0,220,274q-9.66-6.34-26.21-15.18-29.25-16.28-40.56-31.73-11.32-16.28-11.31-39.74,0-35.32,25.94-58.5t66-23.18Q277.94,105.68,315.19,142.93Z"/><path class="cls-3" d="M552.4,139.35l-7.73,62.09q-18.77-24-35.87-34.49Q492,156.73,469.06,156.73q-34.77,0-57.12,25.66t-22.35,66q0,37.81,21,60.43,21.25,22.91,54.91,22.9,32.29,0,66.78-27.87l-8,64.3q-35.33,14.34-67.33,14.35-57.12,0-93-37.25-35.6-37.25-35.6-96.58,0-61,38.36-101.82,38.63-41.11,96-41.12Q509.62,105.68,552.4,139.35Z"/><path class="cls-3" d="M652.18,114.23l-2.76,22.35q30.9-29.25,62.36-29.25,27.59,0,50.22,20.14L723.09,177.7q-16.83-14.35-33.67-14.35A43.94,43.94,0,0,0,669,167.91q-8.83,4.55-15.31,14.35T642.93,207.5a245.94,245.94,0,0,0-6.76,37l-16,129.69h-61l32-259.94h61Z"/><path class="cls-3" d="M845.36,114.23l-2.76,24q36.15-30.35,73.13-30.35,38.08,0,61,21.25,22.35,21.25,22.35,57.95a406.8,406.8,0,0,1-3.31,47.46L978.36,374.17H917.66L936.42,221.3q1.1-8.55,1.52-15.18t0.41-11.87q0-35.32-38.08-35.32-23.46,0-40.29,14.35a68.65,68.65,0,0,0-20.42,27.59,105,105,0,0,0-6.07,20.28q-2.48,12-4.42,27.73L813.63,374.17h-61l32-259.94h60.71Z"/></symbol></defs><title>Screen-v3-Grey</title><use id="Screen_Logo-3" data-name="Screen Logo" width="1290.19" height="561" xlink:href="#Screen_Logo"/></svg>